<?xml version="1.0" encoding="utf-8"?>
<!-- Generator: Adobe Illustrator 20.1.0, SVG Export Plug-In . SVG Version: 6.00 Build 0)  -->
<svg version="1.1" id="Layer_1" xmlns="http://www.w3.org/2000/svg" xmlns:xlink="http://www.w3.org/1999/xlink" x="0px" y="0px"
	 width="397.9px" height="102.5px" viewBox="0 0 397.9 102.5" style="enable-background:new 0 0 397.9 102.5;" xml:space="preserve"
	>
<style type="text/css">
	.st0{fill:url(#SVGID_1_);}
	.st1{opacity:0.27;}
	.st2{fill:#FFFFFF;}
	.st3{fill:#FBB764;}
	.st4{opacity:0.66;}
	.st5{fill:#3D200B;}
	.st6{fill:#935D38;}
	.st7{fill:#FBB77B;}
	.st8{opacity:0.38;fill:#935D38;}
	.st9{fill:#740001;}
	.st10{fill:#EA0001;}
	.st11{fill:url(#SVGID_2_);}
</style>
<g>
	<g>
		
			<radialGradient id="SVGID_1_" cx="-20.3939" cy="870.8881" r="168.3236" gradientTransform="matrix(1.2037 -3.783970e-03 -1.053505e-03 -0.3351 201.9433 351.269)" gradientUnits="userSpaceOnUse">
			<stop  offset="0" style="stop-color:#E3A94F"/>
			<stop  offset="0.2934" style="stop-color:#E2A64D"/>
			<stop  offset="0.5135" style="stop-color:#DD9C46"/>
			<stop  offset="0.7096" style="stop-color:#D58C3B"/>
			<stop  offset="0.8908" style="stop-color:#CA762B"/>
			<stop  offset="1" style="stop-color:#C1641E"/>
		</radialGradient>
		<path class="st0" d="M351.3,29.2l0-8.7l-348.4-2l0.4,24.6l8.4,2.7L0.8,46.4l1.7,37.7l10,2.7l-11.7,0L0,99.6l12.5,0
			c0,0,329-1,336.5,1L349,81.7l-1.3-0.2l-7.1-1.1l9.2-2l-0.7-15.8l4-0.9L353,32.5"/>
		<g>
			<g>
				<g class="st1">
					<path class="st2" d="M157.3,60.8c0,0-13.7,1.1-24-0.2C133.2,60.6,149.7,60.1,157.3,60.8z"/>
					<path class="st2" d="M140.9,56c0,0-13.7,1.1-24-0.2C116.9,55.8,133.4,55.4,140.9,56z"/>
					<path class="st2" d="M64.7,62.2c0,0-13.7,1.1-24-0.2C40.6,62,57.2,61.6,64.7,62.2z"/>
					<path class="st2" d="M130,65c0,0-13.7,1.1-24-0.2C106,64.7,122.5,64.3,130,65z"/>
					<path class="st2" d="M196.3,55.1c0,0-13.7,1.1-24-0.2C172.2,54.9,188.7,54.4,196.3,55.1z"/>
					<path class="st2" d="M65.6,51c0,0-13.7,1.1-24-0.2C41.5,50.8,58.1,50.4,65.6,51z"/>
					<path class="st2" d="M126.4,60.5c0,0-25,1.1-43.8-0.1C82.6,60.4,112.7,59.9,126.4,60.5z"/>
					<path class="st2" d="M118.2,54.4c0,0-25,1.4-43.8-0.2C74.4,54.2,104.5,53.6,118.2,54.4z"/>
					<path class="st2" d="M216,44.8c0,0-50.8,1.5-88.9-0.1C127,44.7,188.2,44,216,44.8z"/>
					<path class="st2" d="M115.4,45.8c0,0-25.1,1.1-43.7-0.8C71.7,44.9,101.8,44.8,115.4,45.8z"/>
					<path class="st2" d="M160.8,50.2c0,0-25,1.4-43.8-0.2C117.1,49.9,147.2,49.4,160.8,50.2z"/>
					<path class="st2" d="M61,56.6c0,0-25,1.4-43.8-0.2C17.3,56.4,47.4,55.8,61,56.6z"/>
				</g>
				<g class="st1">
					<path class="st2" d="M272.8,55.6c0,0-12.9,1.1-22.5-0.2C250.3,55.3,265.8,54.9,272.8,55.6z"/>
					<path class="st2" d="M257.5,50.8c0,0-12.9,1.1-22.5-0.2C235,50.6,250.5,50.1,257.5,50.8z"/>
					<path class="st2" d="M186.1,56.9c0,0-12.9,1.1-22.5-0.2C163.6,56.7,179.1,56.3,186.1,56.9z"/>
					<path class="st2" d="M247.3,59.7c0,0-12.9,1.1-22.5-0.2C224.8,59.5,240.3,59.1,247.3,59.7z"/>
					<path class="st2" d="M309.4,49.9c0,0-12.9,1.1-22.5-0.2C286.8,49.7,302.3,49.2,309.4,49.9z"/>
					<path class="st2" d="M186.9,45.8c0,0-12.9,1.1-22.5-0.2C164.4,45.6,179.9,45.2,186.9,45.8z"/>
					<path class="st2" d="M243.9,55.3c0,0-23.4,1.1-41-0.1C202.9,55.1,231.1,54.7,243.9,55.3z"/>
					<path class="st2" d="M236.2,49.2c0,0-23.4,1.4-41-0.2C195.2,48.9,223.4,48.4,236.2,49.2z"/>
					<path class="st2" d="M327.8,39.6c0,0-47.6,1.5-83.3-0.1C244.5,39.5,301.8,38.8,327.8,39.6z"/>
					<path class="st2" d="M233.7,40.6c0,0-23.5,1.1-41-0.8C192.7,39.7,220.9,39.5,233.7,40.6z"/>
					<path class="st2" d="M276.2,44.9c0,0-23.4,1.4-41-0.2C235.2,44.7,263.4,44.1,276.2,44.9z"/>
					<path class="st2" d="M182.7,51.4c0,0-23.4,1.4-41-0.2C141.7,51.1,169.9,50.6,182.7,51.4z"/>
				</g>
				<g class="st1">
					<path class="st2" d="M327.7,83.8c0,0-4.7,1-8.3-0.3C319.4,83.6,325.1,83.2,327.7,83.8z"/>
					<path class="st2" d="M322.1,79c0,0-4.7,1-8.3-0.3C313.8,78.8,319.5,78.4,322.1,79z"/>
					<path class="st2" d="M295.8,85c0,0-4.7,1-8.3-0.3C287.5,84.8,293.2,84.4,295.8,85z"/>
					<path class="st2" d="M318.4,87.9c0,0-4.7,1-8.3-0.3C310.1,87.7,315.8,87.3,318.4,87.9z"/>
					<path class="st2" d="M341.2,78.2c0,0-4.7,1-8.3-0.3C332.9,78,338.6,77.6,341.2,78.2z"/>
					<path class="st2" d="M296.1,73.9c0,0-4.7,1-8.3-0.3C287.8,73.6,293.5,73.2,296.1,73.9z"/>
					<path class="st2" d="M317.1,83.5c0,0-8.6,1-15.1-0.2C302,83.3,312.4,82.9,317.1,83.5z"/>
					<path class="st2" d="M314.3,77.4c0,0-8.6,1.4-15.1-0.3C299.1,77,309.5,76.5,314.3,77.4z"/>
					<path class="st2" d="M348,68c0,0-17.5,1.4-30.7-0.3C317.3,67.7,338.4,67.1,348,68z"/>
					<path class="st2" d="M313.3,68.7c0,0-8.7,1-15.1-0.9C298.2,67.8,308.6,67.7,313.3,68.7z"/>
					<path class="st2" d="M329,73.2c0,0-8.6,1.4-15.1-0.3C313.8,72.9,324.2,72.4,329,73.2z"/>
					<path class="st2" d="M294.5,79.5c0,0-8.6,1.4-15.1-0.3C279.4,79.2,289.8,78.6,294.5,79.5z"/>
				</g>
				<g class="st1">
					<path class="st2" d="M82.4,84.6c0,0-7.4,1-13-0.2C69.3,84.4,78.3,84,82.4,84.6z"/>
					<path class="st2" d="M73.5,79.8c0,0-7.4,1-13-0.2C60.5,79.6,69.4,79.2,73.5,79.8z"/>
					<path class="st2" d="M32.2,85.9c0,0-7.4,1-13-0.2C19.2,85.6,28.1,85.2,32.2,85.9z"/>
					<path class="st2" d="M67.6,88.7c0,0-7.4,1-13-0.2C54.6,88.5,63.5,88.1,67.6,88.7z"/>
					<path class="st2" d="M103.5,79c0,0-7.4,1-13-0.2C90.5,78.7,99.4,78.3,103.5,79z"/>
					<path class="st2" d="M32.7,74.7c0,0-7.4,1-13-0.2C19.6,74.5,28.6,74.1,32.7,74.7z"/>
					<path class="st2" d="M65.6,84.3c0,0-13.6,1.1-23.7-0.2C41.9,84.1,58.2,83.7,65.6,84.3z"/>
					<path class="st2" d="M61.2,78.2c0,0-13.6,1.4-23.7-0.3C37.5,77.9,53.8,77.3,61.2,78.2z"/>
					<path class="st2" d="M114.2,68.7c0,0-27.5,1.4-48.2-0.2C66,68.5,99.1,67.9,114.2,68.7z"/>
					<path class="st2" d="M59.7,69.5c0,0-13.6,1-23.7-0.9C36,68.6,52.3,68.5,59.7,69.5z"/>
					<path class="st2" d="M84.3,74c0,0-13.6,1.4-23.7-0.3C60.6,73.7,76.9,73.2,84.3,74z"/>
					<path class="st2" d="M30.2,80.3c0,0-13.6,1.4-23.7-0.3C6.5,80,22.8,79.5,30.2,80.3z"/>
				</g>
				<g class="st1">
					<path class="st2" d="M157,71.1c0,0,14.7-1.1,25.8,0.2C182.8,71.3,165.1,71.8,157,71.1z"/>
					<path class="st2" d="M174.5,75.9c0,0,14.7-1.1,25.8,0.2C200.3,76.1,182.6,76.5,174.5,75.9z"/>
					<path class="st2" d="M256.2,69.7c0,0,14.7-1.1,25.8,0.2C282,69.9,264.3,70.3,256.2,69.7z"/>
					<path class="st2" d="M186.2,67c0,0,14.7-1.1,25.8,0.2C212,67.2,194.2,67.6,186.2,67z"/>
					<path class="st2" d="M115.2,76.8c0,0,14.7-1.1,25.8,0.2C141,77,123.3,77.5,115.2,76.8z"/>
					<path class="st2" d="M255.3,80.9c0,0,14.7-1.1,25.8,0.2C281.1,81.1,263.3,81.5,255.3,80.9z"/>
					<path class="st2" d="M190.1,71.4c0,0,26.8-1.1,46.9,0.1C237,71.5,204.8,72,190.1,71.4z"/>
					<path class="st2" d="M198.9,77.5c0,0,26.8-1.4,46.9,0.2C245.8,77.7,213.5,78.3,198.9,77.5z"/>
					<path class="st2" d="M94.1,87.1c0,0,54.5-1.5,95.3,0.1C189.4,87.2,123.9,87.9,94.1,87.1z"/>
					<path class="st2" d="M201.8,86.1c0,0,26.9-1.1,46.9,0.8C248.7,87,216.4,87.1,201.8,86.1z"/>
					<path class="st2" d="M153.2,81.7c0,0,26.8-1.4,46.9,0.2C200.1,82,167.8,82.6,153.2,81.7z"/>
					<path class="st2" d="M260.1,75.3c0,0,26.8-1.4,46.9,0.2C307.1,75.5,274.8,76.1,260.1,75.3z"/>
				</g>
			</g>
			<g>
				<g>
					<g>
						<path class="st3" d="M15.9,33.2c41.7-2,83.4-2.1,125.1-0.4C99.3,34.7,57.6,34.9,15.9,33.2z"/>
					</g>
					<g class="st4">
						<path class="st5" d="M15.9,33.2c41.7-2,83.4-2.1,125.1-0.4C99.2,33.6,59,33.8,15.9,33.2z"/>
					</g>
					<g>
						<path class="st6" d="M15.9,33.2c43.2-0.8,82.3-0.9,125.1-0.4C99.2,33.6,59,33.8,15.9,33.2z"/>
					</g>
				</g>
				<g>
					<g>
						<path class="st7" d="M28.3,65.6c101.2-1.5,202.7-1.8,303.9-1C230.1,66.3,132.8,67.9,28.3,65.6z"/>
					</g>
					<g>
						<path class="st8" d="M28.3,65.6c103.8-3.7,193.5-2.5,303.9-1C230.7,65.4,133.2,65.7,28.3,65.6z"/>
						<path class="st6" d="M28.3,65.6c106.6-1.4,192.9-1.8,303.9-1C230.7,65.4,133.2,65.7,28.3,65.6z"/>
						<path class="st6" d="M332.2,64.6c-101.5,0.8-199.1,1.1-303.9,1"/>
						<path class="st6" d="M332.2,64.6c-101.5,0.8-199.1,1.1-303.9,1"/>
					</g>
				</g>
				<g>
					<g>
						<path class="st3" d="M257.7,39.8c24.5-1.9,49-2,73.5-0.2C306.7,41.5,282.2,41.6,257.7,39.8z"/>
					</g>
					<g>
						<path class="st6" d="M257.7,39.8c24.5-1.9,49-2,73.5-0.2C306.7,40.4,283.1,40.5,257.7,39.8z"/>
					</g>
				</g>
			</g>
		</g>
		<path class="st5" d="M0,99.6l7.9,2.8l337.1,0.1l4-1.9C349,100.5,336.3,96.9,0,99.6z"/>
	</g>
	<g>
		<g>
			<g>
				<path class="st9" d="M48.7,53.5c1.8,1.4,2.7,3.2,2.7,5.5c0,1.5-0.4,2.8-1.3,3.9c-0.8,1.1-2.1,2-3.7,2.7c-1.6,0.6-3.4,1-5.6,1
					v-4.3c1.7,0,2.9-0.3,3.7-0.9c0.8-0.6,1.2-1.4,1.2-2.5c0-2.3-1.5-3.4-4.3-3.4h-1.3v0.6c0,2-0.5,3.7-1.4,5.3c-1,1.6-2.3,2.8-4,3.7
					c-1.7,0.9-3.8,1.3-6.1,1.3c-2,0-3.8-0.3-5.3-1c-1.5-0.7-2.7-1.6-3.5-2.7c-0.8-1.2-1.2-2.5-1.2-4c0-1.5,0.5-2.9,1.4-4.1
					c0.9-1.2,2.2-2.1,3.9-2.7v-10h24.1l0.8,4.2h-8.6v5.1h1.2C44.4,51.4,46.9,52.1,48.7,53.5z M34.7,55.7h-6.3
					c-1.4,0-2.4,0.3-3.2,0.9c-0.8,0.6-1.1,1.4-1.1,2.4c0,1,0.4,1.8,1.2,2.4c0.8,0.6,1.9,0.9,3.3,0.9c2,0,3.5-0.5,4.6-1.6
					c1.1-1.1,1.6-2.5,1.6-4.3V55.7z M34.7,46.3h-5.6v5.1h5.6V46.3z"/>
				<path class="st9" d="M87.2,43c1.7,1.2,3,2.8,3.8,4.8c0.9,2.1,1.3,4.4,1.3,7.1c0,6-1.3,10.7-4,14.2c-2.7,3.5-6.8,5.3-12.3,5.3
					h-7.6c-4.2,0-6.9,0.9-8.1,2.6L56,74.3c0.6-1.2,1.9-2.2,4-3c2-0.7,4.7-1.1,7.9-1.1h8.2c3.6,0,6.3-1.4,8-4.1
					c1.8-2.8,2.6-6.5,2.6-11.2c0-2.9-0.5-5.1-1.4-6.8c-0.9-1.6-2.4-2.5-4.3-2.5c-1.6,0-2.9,0.6-3.7,1.8c-0.9,1.2-1.3,2.9-1.3,5.2
					v13.1h-5.4V53.2c0-2.1-0.4-3.9-1.3-5.3c-0.9-1.5-2.2-2.2-3.8-2.2c-2.8,0-4.2,2.2-4.2,6.7v13.4H56V51.5c0-3,0.8-5.5,2.4-7.4
					c1.6-1.9,3.8-2.8,6.6-2.8c1.7,0,3.2,0.4,4.5,1.1c1.4,0.7,2.5,1.7,3.4,3c1-1.3,2.1-2.3,3.6-3c1.4-0.7,3-1,4.6-1
					C83.5,41.3,85.5,41.8,87.2,43z"/>
				<path class="st9" d="M74.1,37.1c-0.9,0-1.7-0.3-2.3-0.9c-0.6-0.6-0.9-1.4-0.9-2.3c0-1,0.3-1.7,0.9-2.4c0.6-0.6,1.4-0.9,2.3-0.9
					c1,0,1.7,0.3,2.4,0.9c0.6,0.6,0.9,1.4,0.9,2.4c0,0.9-0.3,1.7-0.9,2.3C75.9,36.8,75.1,37.1,74.1,37.1z"/>
				<path class="st9" d="M126.3,53.5c1.8,1.4,2.7,3.2,2.7,5.5c0,1.5-0.4,2.8-1.3,3.9c-0.8,1.1-2.1,2-3.7,2.7c-1.6,0.6-3.4,1-5.6,1
					v-4.3c1.7,0,2.9-0.3,3.7-0.9c0.8-0.6,1.2-1.4,1.2-2.5c0-2.3-1.5-3.4-4.3-3.4h-1.3v0.6c0,2-0.5,3.7-1.4,5.3c-1,1.6-2.3,2.8-4,3.7
					c-1.7,0.9-3.8,1.3-6.1,1.3c-2,0-3.8-0.3-5.3-1c-1.5-0.7-2.7-1.6-3.5-2.7c-0.8-1.2-1.2-2.5-1.2-4c0-1.5,0.5-2.9,1.4-4.1
					c0.9-1.2,2.2-2.1,3.9-2.7v-10h24.1l0.8,4.2h-8.6v5.1h1.2C122,51.4,124.5,52.1,126.3,53.5z M112.3,55.7h-6.3
					c-1.4,0-2.4,0.3-3.2,0.9c-0.8,0.6-1.1,1.4-1.1,2.4c0,1,0.4,1.8,1.2,2.4c0.8,0.6,1.9,0.9,3.3,0.9c2,0,3.5-0.5,4.6-1.6
					c1.1-1.1,1.6-2.5,1.6-4.3V55.7z M112.3,46.3h-5.6v5.1h5.6V46.3z"/>
				<path class="st9" d="M170,52.8c1.7,0.9,3,2.2,4,3.9c1,1.7,1.4,3.5,1.4,5.6c0,2.3-0.6,4.4-1.8,6.2c-1.2,1.8-2.8,3.3-4.9,4.3
					c-2.1,1-4.4,1.5-7,1.5h-7.2c-4.2,0-6.9,0.9-8.1,2.6l-4.4-2.7c0.6-1.2,1.9-2.2,4-3c2.1-0.7,4.7-1.1,7.9-1.1h7.8
					c1.5,0,2.9-0.3,4.1-1c1.2-0.7,2.2-1.6,2.9-2.8c0.7-1.2,1-2.5,1-4c0-1.9-0.5-3.5-1.6-4.8c-1-1.3-2.4-1.9-4-1.9h-0.5v0.6
					c0,2-0.5,3.7-1.4,5.3c-1,1.6-2.3,2.8-4,3.7c-1.7,0.9-3.8,1.3-6.1,1.3c-2,0-3.8-0.3-5.3-1c-1.5-0.7-2.7-1.6-3.5-2.7
					c-0.8-1.2-1.2-2.5-1.2-4c0-1.5,0.5-2.9,1.4-4.1c0.9-1.2,2.2-2.1,3.9-2.7v-10h24.1l0.8,4.2h-8.6v5.1h0.4
					C166.4,51.4,168.3,51.9,170,52.8z M158.4,55.7H152c-1.4,0-2.4,0.3-3.2,0.9c-0.8,0.6-1.1,1.4-1.1,2.4c0,1,0.4,1.8,1.2,2.4
					c0.8,0.6,1.9,0.9,3.3,0.9c2,0,3.5-0.5,4.6-1.6c1.1-1.1,1.6-2.5,1.6-4.3V55.7z M158.4,46.3h-5.6v5.1h5.6V46.3z"/>
				<path class="st9" d="M211,43c1.7,1.2,3.1,2.8,4,4.8c0.9,2.1,1.4,4.4,1.4,7c0,3.4-0.9,6.1-2.6,8.1c-1.7,2-4.4,3-7.8,3H181V42.1
					l5.4-0.2v19.8h8.6v-9.3c0-3.3,0.9-6,2.6-8c1.7-2,4.2-3.1,7.4-3.1C207.2,41.3,209.2,41.8,211,43z M209.8,59.9
					c0.7-1.1,1-2.9,1-5.1c0-2.7-0.5-4.9-1.6-6.5c-1-1.7-2.5-2.5-4.3-2.5c-3.1,0-4.6,2.3-4.6,7v8.9h5.6
					C207.8,61.6,209.1,61,209.8,59.9z"/>
				<path class="st9" d="M220.7,30.7c2.3,1.2,4,2.8,5.2,4.8c1.2,2.1,1.8,4.4,1.8,7v23.3h-5.4V42.6c0-2.8-0.8-5-2.5-6.7
					c-1.7-1.7-4-2.5-6.9-2.5c-2.1,0-3.7,0.4-4.9,1.2c-1.2,0.8-1.7,1.9-1.7,3.2c0,1.3,0.3,2.4,1,3.1c0.6,0.8,1.6,1.2,3,1.2v3.7
					c-2.8,0-5.1-0.7-6.7-2.2c-1.7-1.5-2.5-3.4-2.5-5.8c0-1.7,0.5-3.2,1.5-4.6c1-1.3,2.4-2.4,4.2-3.1c1.8-0.8,3.9-1.1,6.3-1.1
					C215.9,28.9,218.5,29.5,220.7,30.7z"/>
				<path class="st9" d="M255,65.8v1.1c0,1.2,0.3,2.1,0.8,2.6c0.5,0.5,1.3,0.8,2.3,0.8h6.9l0.8,4.2h-8.1c-0.8,1.6-2,2.9-3.8,3.9
					c-1.8,1-3.8,1.5-6,1.5c-1.9,0-3.7-0.4-5.2-1.1c-1.5-0.7-2.7-1.8-3.6-3.1c-0.9-1.3-1.3-2.9-1.3-4.6h5.4c0,1.3,0.4,2.3,1.3,3.1
					c0.9,0.8,2,1.2,3.4,1.2c1.3,0,2.4-0.2,3.2-0.7c0.8-0.5,1.3-1,1.5-1.8c-0.9-0.5-1.7-1.1-2.2-2c-0.5-0.9-0.8-1.9-0.8-3.1v-1.9h-14
					V42.1l5.4-0.2v19.8h8.6v-9.3c0-3.3,0.9-6,2.6-8c1.7-2,4.2-3.1,7.4-3.1c2.3,0,4.3,0.6,6,1.7c1.7,1.2,3.1,2.8,4,4.8
					c0.9,2.1,1.4,4.4,1.4,7c0,3.4-0.9,6.1-2.6,8.1c-1.7,2-4.4,3-7.8,3H255z M255,61.6h5.6c1.9,0,3.2-0.6,3.9-1.7
					c0.7-1.1,1-2.9,1-5.1c0-2.7-0.5-4.9-1.6-6.5c-1-1.7-2.5-2.5-4.3-2.5c-3.1,0-4.6,2.3-4.6,7V61.6z"/>
				<path class="st9" d="M296.6,46.3v19.5h-5.4V46.3h-8.8v19.5H277V42.1h27.1l0.8,4.2H296.6z"/>
			</g>
		</g>
		<g>
			<g>
				<path class="st10" d="M47,51.9c1.8,1.4,2.7,3.2,2.7,5.5c0,1.5-0.4,2.8-1.3,3.9c-0.8,1.1-2.1,2-3.7,2.7c-1.6,0.6-3.4,1-5.6,1
					v-4.3c1.7,0,2.9-0.3,3.7-0.9c0.8-0.6,1.2-1.4,1.2-2.5c0-2.3-1.5-3.4-4.3-3.4h-1.3v0.6c0,2-0.5,3.7-1.4,5.3c-1,1.6-2.3,2.8-4,3.7
					c-1.7,0.9-3.8,1.3-6.1,1.3c-2,0-3.8-0.3-5.3-1c-1.5-0.7-2.7-1.6-3.5-2.7c-0.8-1.2-1.2-2.5-1.2-4c0-1.5,0.5-2.9,1.4-4.1
					c0.9-1.2,2.2-2.1,3.9-2.7v-10h24.1l0.8,4.2h-8.6v5.1h1.2C42.8,49.8,45.2,50.5,47,51.9z M33,54h-6.3c-1.4,0-2.4,0.3-3.2,0.9
					c-0.8,0.6-1.1,1.4-1.1,2.4c0,1,0.4,1.8,1.2,2.4c0.8,0.6,1.9,0.9,3.3,0.9c2,0,3.5-0.5,4.6-1.6c1.1-1.1,1.6-2.5,1.6-4.3V54z
					 M33,44.6h-5.6v5.1H33V44.6z"/>
				<path class="st10" d="M85.5,41.3c1.7,1.2,3,2.8,3.8,4.8c0.9,2.1,1.3,4.4,1.3,7.1c0,6-1.3,10.7-4,14.2c-2.7,3.5-6.8,5.3-12.3,5.3
					h-7.6c-4.2,0-6.9,0.9-8.1,2.6l-4.3-2.7c0.6-1.2,1.9-2.2,4-3c2-0.7,4.7-1.1,7.9-1.1h8.2c3.6,0,6.3-1.4,8-4.1
					c1.8-2.8,2.6-6.5,2.6-11.2c0-2.9-0.5-5.1-1.4-6.8c-0.9-1.6-2.4-2.5-4.3-2.5c-1.6,0-2.9,0.6-3.7,1.8c-0.9,1.2-1.3,2.9-1.3,5.2
					v13.1H69V51.6c0-2.1-0.4-3.9-1.3-5.3c-0.9-1.5-2.2-2.2-3.8-2.2c-2.8,0-4.2,2.2-4.2,6.7v13.4h-5.4V49.8c0-3,0.8-5.5,2.4-7.4
					c1.6-1.9,3.8-2.8,6.6-2.8c1.7,0,3.2,0.4,4.5,1.1c1.4,0.7,2.5,1.7,3.4,3c1-1.3,2.1-2.3,3.6-3c1.4-0.7,3-1,4.6-1
					C81.8,39.6,83.8,40.2,85.5,41.3z"/>
				<path class="st10" d="M72.4,35.5c-0.9,0-1.7-0.3-2.3-0.9c-0.6-0.6-0.9-1.4-0.9-2.3c0-1,0.3-1.7,0.9-2.4c0.6-0.6,1.4-0.9,2.3-0.9
					c1,0,1.7,0.3,2.4,0.9c0.6,0.6,0.9,1.4,0.9,2.4c0,0.9-0.3,1.7-0.9,2.3C74.2,35.2,73.4,35.5,72.4,35.5z"/>
				<path class="st10" d="M124.6,51.9c1.8,1.4,2.7,3.2,2.7,5.5c0,1.5-0.4,2.8-1.3,3.9c-0.8,1.1-2.1,2-3.7,2.7c-1.6,0.6-3.4,1-5.6,1
					v-4.3c1.7,0,2.9-0.3,3.7-0.9c0.8-0.6,1.2-1.4,1.2-2.5c0-2.3-1.5-3.4-4.3-3.4H116v0.6c0,2-0.5,3.7-1.4,5.3c-1,1.6-2.3,2.8-4,3.7
					c-1.7,0.9-3.8,1.3-6.1,1.3c-2,0-3.8-0.3-5.3-1c-1.5-0.7-2.7-1.6-3.5-2.7c-0.8-1.2-1.2-2.5-1.2-4c0-1.5,0.5-2.9,1.4-4.1
					c0.9-1.2,2.2-2.1,3.9-2.7v-10h24.1l0.8,4.2H116v5.1h1.2C120.4,49.8,122.8,50.5,124.6,51.9z M110.6,54h-6.3
					c-1.4,0-2.4,0.3-3.2,0.9c-0.8,0.6-1.1,1.4-1.1,2.4c0,1,0.4,1.8,1.2,2.4c0.8,0.6,1.9,0.9,3.3,0.9c2,0,3.5-0.5,4.6-1.6
					c1.1-1.1,1.6-2.5,1.6-4.3V54z M110.6,44.6H105v5.1h5.6V44.6z"/>
				<path class="st10" d="M168.3,51.2c1.7,0.9,3,2.2,4,3.9c1,1.7,1.4,3.5,1.4,5.6c0,2.3-0.6,4.4-1.8,6.2c-1.2,1.8-2.8,3.3-4.9,4.3
					c-2.1,1-4.4,1.5-7,1.5h-7.2c-4.2,0-6.9,0.9-8.1,2.6l-4.4-2.7c0.6-1.2,1.9-2.2,4-3c2.1-0.7,4.7-1.1,7.9-1.1h7.8
					c1.5,0,2.9-0.3,4.1-1c1.2-0.7,2.2-1.6,2.9-2.8c0.7-1.2,1-2.5,1-4c0-1.9-0.5-3.5-1.6-4.8c-1-1.3-2.4-1.9-4-1.9h-0.5v0.6
					c0,2-0.5,3.7-1.4,5.3c-1,1.6-2.3,2.8-4,3.7c-1.7,0.9-3.8,1.3-6.1,1.3c-2,0-3.8-0.3-5.3-1c-1.5-0.7-2.7-1.6-3.5-2.7
					c-0.8-1.2-1.2-2.5-1.2-4c0-1.5,0.5-2.9,1.4-4.1c0.9-1.2,2.2-2.1,3.9-2.7v-10h24.1l0.8,4.2h-8.6v5.1h0.4
					C164.7,49.8,166.6,50.2,168.3,51.2z M156.7,54h-6.3c-1.4,0-2.4,0.3-3.2,0.9c-0.8,0.6-1.1,1.4-1.1,2.4c0,1,0.4,1.8,1.2,2.4
					c0.8,0.6,1.9,0.9,3.3,0.9c2,0,3.5-0.5,4.6-1.6c1.1-1.1,1.6-2.5,1.6-4.3V54z M156.7,44.6H151v5.1h5.6V44.6z"/>
				<path class="st10" d="M209.3,41.3c1.7,1.2,3.1,2.8,4,4.8c0.9,2.1,1.4,4.4,1.4,7c0,3.4-0.9,6.1-2.6,8.1c-1.7,2-4.4,3-7.8,3h-24.9
					V40.4l5.4-0.2v19.8h8.6v-9.3c0-3.3,0.9-6,2.6-8c1.7-2,4.2-3.1,7.4-3.1C205.6,39.6,207.6,40.2,209.3,41.3z M208.1,58.2
					c0.7-1.1,1-2.9,1-5.1c0-2.7-0.5-4.9-1.6-6.5c-1-1.7-2.5-2.5-4.3-2.5c-3.1,0-4.6,2.3-4.6,7v8.9h5.6
					C206.2,59.9,207.4,59.4,208.1,58.2z"/>
				<path class="st10" d="M219.1,29c2.3,1.2,4,2.8,5.2,4.8c1.2,2.1,1.8,4.4,1.8,7v23.3h-5.4V40.9c0-2.8-0.8-5-2.5-6.7
					c-1.7-1.7-4-2.5-6.9-2.5c-2.1,0-3.7,0.4-4.9,1.2c-1.2,0.8-1.7,1.9-1.7,3.2c0,1.3,0.3,2.4,1,3.1c0.6,0.8,1.6,1.2,3,1.2v3.7
					c-2.8,0-5.1-0.7-6.7-2.2c-1.7-1.5-2.5-3.4-2.5-5.8c0-1.7,0.5-3.2,1.5-4.6c1-1.3,2.4-2.4,4.2-3.1c1.8-0.8,3.9-1.1,6.3-1.1
					C214.2,27.3,216.8,27.8,219.1,29z"/>
				<path class="st10" d="M253.3,64.1v1.1c0,1.2,0.3,2.1,0.8,2.6c0.5,0.5,1.3,0.8,2.3,0.8h6.9l0.8,4.2H256c-0.8,1.6-2,2.9-3.8,3.9
					c-1.8,1-3.8,1.5-6,1.5c-1.9,0-3.7-0.4-5.2-1.1c-1.5-0.7-2.7-1.8-3.6-3.1c-0.9-1.3-1.3-2.9-1.3-4.6h5.4c0,1.3,0.4,2.3,1.3,3.1
					c0.9,0.8,2,1.2,3.4,1.2c1.3,0,2.4-0.2,3.2-0.7c0.8-0.5,1.3-1,1.5-1.8c-0.9-0.5-1.7-1.1-2.2-2c-0.5-0.9-0.8-1.9-0.8-3.1v-1.9h-14
					V40.4l5.4-0.2v19.8h8.6v-9.3c0-3.3,0.9-6,2.6-8c1.7-2,4.2-3.1,7.4-3.1c2.3,0,4.3,0.6,6,1.7c1.7,1.2,3.1,2.8,4,4.8
					c0.9,2.1,1.4,4.4,1.4,7c0,3.4-0.9,6.1-2.6,8.1c-1.7,2-4.4,3-7.8,3H253.3z M253.3,59.9h5.6c1.9,0,3.2-0.6,3.9-1.7
					c0.7-1.1,1-2.9,1-5.1c0-2.7-0.5-4.9-1.6-6.5c-1-1.7-2.5-2.5-4.3-2.5c-3.1,0-4.6,2.3-4.6,7V59.9z"/>
				<path class="st10" d="M294.9,44.6v19.5h-5.4V44.6h-8.8v19.5h-5.4V40.4h27.1l0.8,4.2H294.9z"/>
			</g>
		</g>
	</g>
	<g>
		<path d="M210,89.7c0,0.7-0.2,1.4-0.5,2c-0.3,0.6-0.8,1-1.5,1.4c-0.6,0.3-1.4,0.5-2.3,0.5c-0.7,0-1.4-0.1-1.9-0.4
			c-0.6-0.2-1-0.6-1.3-1s-0.4-0.9-0.4-1.4c0-0.8,0.3-1.5,1-2c0.7-0.5,1.6-0.8,2.7-0.8h4.6c0.8,0,1.5,0.1,2,0.4s1,0.6,1.3,1
			c0.3,0.4,0.4,0.9,0.4,1.5c0,0.5-0.2,1-0.5,1.4c-0.3,0.4-0.8,0.7-1.3,1c-0.6,0.2-1.3,0.4-2.1,0.4v-1.4c0.7,0,1.3-0.1,1.6-0.4
			c0.3-0.3,0.5-0.6,0.5-1s-0.1-0.8-0.4-1.1c-0.3-0.3-0.8-0.4-1.4-0.4h-4.6c-0.6,0-1.1,0.1-1.4,0.4c-0.3,0.3-0.5,0.6-0.5,1
			c0,0.4,0.2,0.7,0.5,1c0.3,0.3,0.8,0.4,1.3,0.4c0.5,0,1-0.1,1.4-0.3c0.4-0.2,0.7-0.5,0.9-0.8c0.2-0.4,0.3-0.8,0.3-1.2v-3.9h-2.4
			v2.9h-1.7v-4.3h8.7l0.3,1.4H210V89.7z"/>
		<path d="M224.9,84c0.9,0,1.6,0.2,2.2,0.7c0.6,0.4,1.1,1.1,1.4,1.8c0.3,0.8,0.4,1.7,0.4,2.6c0,1.4-0.2,2.6-0.6,3.7
			c-0.4,1.1-1.1,1.9-1.9,2.5c-0.9,0.6-2,0.9-3.3,0.9h-2.7c-0.8,0-1.5,0.1-1.9,0.3c-0.4,0.2-0.7,0.4-1,0.8l-1.4-0.8
			c0.2-0.5,0.7-0.9,1.4-1.1s1.6-0.4,2.7-0.4h2.9c1,0,1.7-0.2,2.3-0.7c0.6-0.5,1-1.2,1.3-2c0.3-0.9,0.4-1.9,0.4-3
			c0-0.7-0.1-1.3-0.2-1.9c-0.1-0.5-0.4-1-0.7-1.3c-0.3-0.3-0.8-0.5-1.3-0.5c-0.4,0-0.7,0.1-1,0.3c-0.3,0.2-0.5,0.5-0.6,0.8
			c-0.1,0.4-0.2,0.8-0.2,1.4v5.2h-1.7v-5c0-0.5-0.1-0.9-0.2-1.3c-0.1-0.4-0.3-0.7-0.6-1c-0.3-0.2-0.6-0.4-1-0.4
			c-0.6,0-1,0.2-1.2,0.7c-0.3,0.4-0.4,1-0.4,1.8v5.2H216v-5.4c0-0.7,0.1-1.4,0.4-1.9c0.2-0.6,0.6-1,1.1-1.3s1.1-0.5,1.8-0.5
			c0.6,0,1.1,0.1,1.6,0.4c0.5,0.3,0.8,0.6,1.2,1.1c0.3-0.5,0.7-0.8,1.2-1.1C223.7,84.2,224.3,84,224.9,84z"/>
		<path d="M238.3,89.7c0,0.7-0.2,1.4-0.5,2c-0.3,0.6-0.8,1-1.5,1.4c-0.6,0.3-1.4,0.5-2.3,0.5c-0.7,0-1.4-0.1-1.9-0.4
			c-0.6-0.2-1-0.6-1.3-1s-0.4-0.9-0.4-1.4c0-0.8,0.3-1.5,1-2c0.7-0.5,1.6-0.8,2.7-0.8h4.6c0.8,0,1.5,0.1,2,0.4c0.6,0.2,1,0.6,1.3,1
			c0.3,0.4,0.4,0.9,0.4,1.5c0,0.5-0.2,1-0.5,1.4c-0.3,0.4-0.8,0.7-1.3,1c-0.6,0.2-1.3,0.4-2.1,0.4v-1.4c0.7,0,1.3-0.1,1.6-0.4
			c0.3-0.3,0.5-0.6,0.5-1s-0.1-0.8-0.4-1.1c-0.3-0.3-0.8-0.4-1.4-0.4h-4.6c-0.6,0-1.1,0.1-1.4,0.4c-0.3,0.3-0.5,0.6-0.5,1
			c0,0.4,0.2,0.7,0.5,1c0.3,0.3,0.8,0.4,1.3,0.4c0.5,0,1-0.1,1.4-0.3c0.4-0.2,0.7-0.5,0.9-0.8c0.2-0.4,0.3-0.8,0.3-1.2v-3.9h-2.4
			v2.9h-1.7v-4.3h8.7l0.3,1.4h-3.1V89.7z"/>
		<path d="M255.4,89.7c0,0.7-0.2,1.4-0.5,2c-0.3,0.6-0.8,1-1.5,1.4c-0.6,0.3-1.4,0.5-2.3,0.5c-0.7,0-1.4-0.1-1.9-0.4
			c-0.6-0.2-1-0.6-1.3-1c-0.3-0.4-0.4-0.9-0.4-1.4c0-0.8,0.3-1.5,1-2c0.7-0.5,1.6-0.8,2.7-0.8h4.6c0.8,0,1.5,0.1,2,0.4s1,0.6,1.3,1
			c0.3,0.4,0.4,0.9,0.4,1.5c0,0.5-0.2,1-0.5,1.4c-0.3,0.4-0.8,0.7-1.3,1c-0.6,0.2-1.3,0.4-2.1,0.4v-1.4c0.7,0,1.3-0.1,1.6-0.4
			c0.3-0.3,0.5-0.6,0.5-1s-0.1-0.8-0.4-1.1c-0.3-0.3-0.8-0.4-1.4-0.4h-4.6c-0.6,0-1.1,0.1-1.4,0.4c-0.3,0.3-0.5,0.6-0.5,1
			c0,0.4,0.2,0.7,0.5,1c0.3,0.3,0.8,0.4,1.3,0.4c0.5,0,1-0.1,1.4-0.3c0.4-0.2,0.7-0.5,0.9-0.8c0.2-0.4,0.3-0.8,0.3-1.2v-3.9h-2.4
			v2.9h-1.7v-4.3h8.7l0.3,1.4h-3.1V89.7z"/>
		<path d="M268.7,89.7c0,0.7-0.2,1.4-0.5,2s-0.8,1-1.5,1.4c-0.6,0.3-1.4,0.5-2.3,0.5c-0.7,0-1.4-0.1-1.9-0.4c-0.6-0.2-1-0.6-1.3-1
			s-0.4-0.9-0.4-1.4c0-0.8,0.3-1.5,1-2c0.7-0.5,1.6-0.8,2.7-0.8h7l0.3,1.4h-7.2c-0.6,0-1.1,0.1-1.4,0.4c-0.3,0.3-0.5,0.6-0.5,1
			c0,0.4,0.2,0.7,0.5,1c0.3,0.3,0.8,0.4,1.3,0.4c0.5,0,1-0.1,1.4-0.3c0.4-0.2,0.7-0.5,0.9-0.8c0.2-0.4,0.3-0.8,0.3-1.2v-3.9h-2.4
			v2.9h-1.7v-4.3h8.7l0.3,1.4h-3.1V89.7z"/>
		<path d="M284.6,93.2h-10.8v-8.8l1.7-0.1v7.6h8.8L284.6,93.2z"/>
		<path d="M294.9,84c0.9,0,1.6,0.2,2.2,0.7c0.6,0.4,1.1,1.1,1.4,1.8c0.3,0.8,0.4,1.7,0.4,2.6c0,1.4-0.2,2.6-0.6,3.7
			c-0.4,1.1-1.1,1.9-1.9,2.5c-0.9,0.6-2,0.9-3.3,0.9h-2.7c-0.8,0-1.5,0.1-1.9,0.3c-0.4,0.2-0.7,0.4-1,0.8l-1.4-0.8
			c0.2-0.5,0.7-0.9,1.4-1.1s1.6-0.4,2.7-0.4h2.9c1,0,1.7-0.2,2.3-0.7c0.6-0.5,1-1.2,1.3-2c0.3-0.9,0.4-1.9,0.4-3
			c0-0.7-0.1-1.3-0.2-1.9c-0.1-0.5-0.4-1-0.7-1.3c-0.3-0.3-0.8-0.5-1.3-0.5c-0.4,0-0.7,0.1-1,0.3c-0.3,0.2-0.5,0.5-0.6,0.8
			c-0.1,0.4-0.2,0.8-0.2,1.4v5.2h-1.7v-5c0-0.5-0.1-0.9-0.2-1.3c-0.1-0.4-0.3-0.7-0.6-1c-0.3-0.2-0.6-0.4-1-0.4
			c-0.6,0-1,0.2-1.2,0.7c-0.3,0.4-0.4,1-0.4,1.8v5.2h-1.7v-5.4c0-0.7,0.1-1.4,0.4-1.9c0.2-0.6,0.6-1,1.1-1.3s1.1-0.5,1.8-0.5
			c0.6,0,1.1,0.1,1.6,0.4c0.5,0.3,0.8,0.6,1.2,1.1c0.3-0.5,0.7-0.8,1.2-1.1C293.8,84.2,294.3,84,294.9,84z"/>
		<path d="M221.7,82.2c-0.2-0.2-0.3-0.5-0.3-0.8c0-0.3,0.1-0.6,0.3-0.8c0.2-0.2,0.4-0.3,0.7-0.3c0.3,0,0.6,0.1,0.8,0.3
			c0.2,0.2,0.3,0.5,0.3,0.8c0,0.3-0.1,0.5-0.3,0.7c-0.2,0.2-0.5,0.3-0.8,0.3C222.1,82.5,221.9,82.4,221.7,82.2z"/>
	</g>
	<g>
		<path class="st9" d="M308.7,93.8l-0.3-1.2v-1.8c0.1-0.3,7.9-33.7,41.4-61.2l1.6,0.1C320.1,59.5,308.8,93.4,308.7,93.8z"/>
		<linearGradient id="SVGID_2_" gradientUnits="userSpaceOnUse" x1="308.2973" y1="46.2976" x2="397.8706" y2="46.2976">
			<stop  offset="0" style="stop-color:#EA0001"/>
			<stop  offset="1" style="stop-color:#FCA501"/>
		</linearGradient>
		<path class="st11" d="M397.9,3.7c-3.9-2-9.1-3.3-15-3.7c-8.4-0.6-16.4,3.6-20.5,10.9c0,0-0.7-5.5,3.6-10
			c-3.6,2.1-8.5,6.1-12.4,12.9c0,0-0.9-6.8,5.2-11.4c-0.1,0-0.2,0.1-0.3,0.1c-9.2,2.5-16.3,9.8-18.5,19.1c0,0,0,0,0,0
			c0,0-2.7-6.2,1.8-12.3c0,0,0,0,0,0c-4.3,2.4-7.6,6.1-9.6,10.5c-0.9,1.9-1.6,4.1-2.2,6.5c0,0-1.7-3.9-0.2-8.5c0,0,0,0,0,0
			c-3.8,3.4-6.3,8-7.1,13.1c-0.8,4.7-0.9,10,0.7,15c0,0-6.8-3.1-7.3-10.1c-3.5,7.7-5,17.6,0.6,23.8c-5.9,10.5-8.9,21-8.1,32.8
			c3.3-7.8,9.1-31.4,42.6-63C342.1,40,333,52.4,326,65.2c3,0.8,6.5,0.9,10.3,0.2c-3.2-1.2-5-3.4-5-3.4c0,0,0.1,0,0.1,0
			c7.4,1.8,15.3-0.1,21.1-5c0.1-0.1,0.2-0.2,0.3-0.3c-4.5-0.9-7-4-7-4c1.7,0.4,3.3,0.7,4.8,0.8c3.3,0.4,6.7-0.9,8.9-3.4
			c0.1-0.1,0.1-0.1,0.2-0.2c-6.9,0.2-13.6-4.3-13.6-4.3c5.5,0.3,10.2-0.2,14.1-1c2.8-0.6,5.1-2.4,6.5-4.8c0,0,0,0,0-0.1
			c-4.9,0.3-8.3-2.5-8.3-2.5c1.1,0,2.2,0,3.3,0c4.1-0.2,7.8-2.6,9.6-6.3c-4.5,0-7.6-2.5-7.6-2.5c5.1,0.2,9.9-2.5,12.5-6.9
			c2-3.3,4.2-6.5,6.9-9.2c-7.9,1.2-12.3,4.7-12.3,4.7c0.7-0.8,1.4-1.5,2-2.1C373,15.1,382,5.5,397.9,3.7z"/>
	</g>
</g>
</svg>
