<?xml version="1.0" encoding="utf-8"?>
<!-- Generator: Adobe Illustrator 20.1.0, SVG Export Plug-In . SVG Version: 6.00 Build 0)  -->
<svg version="1.1" id="Layer_1" xmlns="http://www.w3.org/2000/svg" xmlns:xlink="http://www.w3.org/1999/xlink" x="0px" y="0px"
	 width="32px" height="32px" viewBox="0 0 32 32" style="enable-background:new 0 0 32 32;" xml:space="preserve">
<style type="text/css">
	.st0{fill:#FDB32E;}
	.st1{fill:#3E3E3E;}
	.st2{fill:#E2E0E0;}
</style>
<g>
	<path class="st1" d="M16,4.2c0,0.1,0.1,0.2,0.1,0.3l0.6,1.2l0.8,1.5c0.6,1.2,1.2,2.4,1.8,3.6c0.4,0.8,1.1,1.3,2,1.4
		c1.3,0.2,2.5,0.4,3.8,0.5l1.6,0.2l1.8,0.3l0.3,0c-0.2,0.2-0.5,0.4-0.7,0.7c-1.5,1.4-3,2.9-4.5,4.3c-1.2,1.1-1,2.5-0.9,2.9
		c0.3,1.8,0.6,3.7,1,5.5c0.1,0.5,0.2,1,0.3,1.5L21.6,27l-1.4-0.7c-1-0.5-2.1-1.1-3.1-1.6c-0.4-0.2-0.8-0.3-1.2-0.3
		c-0.4,0-0.8,0.1-1.2,0.3c-2.2,1.2-4.5,2.3-6.7,3.5c0-0.2,0.1-0.5,0.1-0.7c0.4-2.2,0.8-4.4,1.1-6.5c0.2-0.9-0.1-1.8-0.8-2.4
		c-1.4-1.3-2.8-2.6-4.1-3.9l-1.2-1.1C4.6,13.2,6,13,7.4,12.8l2.1-0.3l0.4-0.1c0.2,0,0.5-0.1,0.7-0.1c1-0.1,1.8-0.6,2.2-1.5
		c0.9-1.8,1.8-3.7,2.8-5.5L16,4.2 M16,1c-0.1,0-0.2,0-0.2,0c-0.4,0.1-0.6,0.3-0.8,0.7c-1.4,2.7-2.7,5.5-4.1,8.2
		c-0.1,0.3-0.3,0.4-0.6,0.4c-0.4,0-0.8,0.1-1.2,0.2c-2.7,0.4-5.3,0.8-8,1.1c-0.5,0.1-0.9,0.2-1.1,0.7c0,0.2,0,0.4,0,0.6
		c0.1,0.2,0.3,0.4,0.5,0.6c2.2,2.1,4.5,4.3,6.7,6.4c0.2,0.2,0.3,0.4,0.2,0.6c-0.4,2.2-0.8,4.4-1.1,6.6c-0.2,0.9-0.4,1.8-0.5,2.8
		C5.7,30.6,6.1,31,6.7,31c0.2,0,0.4-0.1,0.6-0.2c2.8-1.5,5.6-2.9,8.4-4.4c0.1,0,0.2-0.1,0.2-0.1c0.1,0,0.1,0,0.2,0.1
		c1.5,0.8,3,1.6,4.5,2.3c1.3,0.7,2.7,1.4,4,2.1c0.2,0.1,0.4,0.2,0.6,0.2c0.2,0,0.4-0.1,0.5-0.2c0.4-0.3,0.5-0.6,0.4-1.1
		c-0.5-3-1-5.9-1.6-8.9c-0.1-0.4-0.1-0.7,0.3-1.1c2.2-2.1,4.4-4.2,6.6-6.3c0.3-0.3,0.5-0.6,0.4-1.1c-0.1-0.5-0.5-0.6-0.9-0.7
		c-1.3-0.2-2.7-0.4-4-0.6c-1.8-0.3-3.6-0.5-5.4-0.8c-0.2,0-0.4-0.1-0.5-0.3c-0.9-1.7-1.7-3.5-2.6-5.2c-0.5-1.1-1.1-2.1-1.6-3.2
		C16.7,1.2,16.4,1,16,1L16,1z"/>
</g>
<g>
	<path class="st2" d="M16,5.1c0,0.1,0.1,0.2,0.1,0.2l0.6,1.1l0.7,1.4c0.6,1.1,1.1,2.3,1.7,3.4c0.4,0.7,1,1.2,1.8,1.3
		c1.2,0.2,2.3,0.3,3.5,0.5l1.5,0.2l1.7,0.2l0.3,0c-0.2,0.2-0.4,0.4-0.6,0.6c-1.4,1.3-2.8,2.7-4.2,4c-1.1,1.1-0.9,2.3-0.9,2.7
		c0.3,1.7,0.6,3.4,0.9,5.1c0.1,0.5,0.2,0.9,0.2,1.4l-2.1-1.1l-1.3-0.7c-1-0.5-1.9-1-2.9-1.5c-0.3-0.2-0.7-0.3-1.1-0.3
		c-0.4,0-0.7,0.1-1.1,0.3c-2.1,1.1-4.2,2.2-6.2,3.3c0-0.2,0.1-0.4,0.1-0.7c0.4-2,0.7-4.1,1.1-6.1c0.2-0.8-0.1-1.7-0.8-2.3
		c-1.3-1.2-2.6-2.4-3.8-3.7l-1.1-1.1c1.3-0.2,2.6-0.4,3.9-0.6l1.9-0.3l0.3-0.1c0.2,0,0.4-0.1,0.7-0.1c0.9-0.1,1.6-0.6,2.1-1.4
		c0.8-1.7,1.7-3.4,2.6-5.2L16,5.1"/>
</g>
</svg>
