<?xml version="1.0" encoding="utf-8"?>
<!-- Generator: Adobe Illustrator 20.1.0, SVG Export Plug-In . SVG Version: 6.00 Build 0)  -->
<svg version="1.1" id="Layer_1" xmlns="http://www.w3.org/2000/svg" xmlns:xlink="http://www.w3.org/1999/xlink" x="0px" y="0px"
	 width="32px" height="32px" viewBox="0 0 32 32" style="enable-background:new 0 0 32 32;" xml:space="preserve">
<style type="text/css">
	.st0{fill:#FDB32E;}
	.st1{fill:#3E3E3E;}
	.st2{fill:#E2E0E0;}
</style>
<g>
	<g>
		<path class="st0" d="M0,12.4c0.2-0.5,0.7-0.6,1.1-0.7c2.7-0.4,5.3-0.8,8-1.1c0.4-0.1,0.8-0.1,1.2-0.2c0.3,0,0.5-0.2,0.6-0.4
			c1.4-2.8,2.7-5.5,4.1-8.2c0.2-0.3,0.4-0.6,0.8-0.7c0.5-0.1,0.9,0.1,1.1,0.6c0.5,1.1,1.1,2.1,1.6,3.2c0.9,1.7,1.7,3.5,2.6,5.2
			c0.1,0.2,0.2,0.3,0.5,0.3c1.8,0.2,3.6,0.5,5.4,0.8c1.3,0.2,2.7,0.4,4,0.6c0.4,0.1,0.8,0.2,0.9,0.7c0.1,0.4,0,0.8-0.4,1.1
			c-2.2,2.1-4.4,4.2-6.6,6.3c-0.4,0.3-0.4,0.6-0.3,1.1c0.5,3,1,5.9,1.6,8.9c0.1,0.4,0,0.8-0.4,1.1c-0.4,0.3-0.7,0.2-1.1,0
			c-1.3-0.7-2.7-1.4-4-2.1c-1.5-0.8-3-1.6-4.5-2.3c-0.2-0.1-0.3-0.1-0.5,0c-2.8,1.5-5.6,2.9-8.4,4.4c-0.8,0.4-1.6,0-1.5-1
			c0.1-0.9,0.3-1.8,0.5-2.8c0.4-2.2,0.8-4.4,1.1-6.6c0-0.3,0-0.4-0.2-0.6c-2.2-2.1-4.5-4.2-6.7-6.4c-0.2-0.2-0.4-0.4-0.5-0.6
			C0,12.7,0,12.5,0,12.4z"/>
	</g>
</g>
</svg>
