<?xml version="1.0" encoding="utf-8"?>
<!-- Generator: Adobe Illustrator 20.1.0, SVG Export Plug-In . SVG Version: 6.00 Build 0)  -->
<svg version="1.1" id="Layer_1" xmlns="http://www.w3.org/2000/svg" xmlns:xlink="http://www.w3.org/1999/xlink" x="0px" y="0px"
	 width="32px" height="32px" viewBox="0 0 32 32" style="enable-background:new 0 0 32 32;" xml:space="preserve">
<style type="text/css">
	.st0{fill:#FDB32E;}
	.st1{fill:#3E3E3E;}
	.st2{fill:#E2E0E0;}
</style>
<g>
	<path class="st1" d="M5.3,0c0.4,0.9,0.8,1.8,1.2,2.8c0.1,0.3,0.3,0.4,0.6,0.4c7.6,0,15.3,0,22.9,0c0.2,0,0.4,0,0.6,0
		c1,0.2,1.4,1,1.3,1.9c0,0.1-0.1,0.2-0.1,0.2c-0.9,1.4-1.7,2.9-2.5,4.4c-1.2,2.1-2.3,4.2-3.5,6.3c-0.6,1.1-1.5,1.6-2.7,1.6
		c-1.3,0-2.6,0-3.9,0c-2.5,0-5,0-7.5,0c-0.3,0-0.5,0.1-0.6,0.4c-0.4,0.7-0.8,1.4-1.1,2.2c-0.2,0.4-0.1,0.6,0.4,0.6
		c1.2,0,2.4,0,3.6,0c4.7,0,9.5,0,14.2,0c0.1,0,0.2,0,0.3,0c0.2,0,0.3,0.1,0.3,0.3c0,0.9,0,1.8,0,2.7c0,0.2-0.1,0.3-0.3,0.3
		c-0.1,0-0.1,0-0.2,0c-6.2,0-12.5,0-18.7,0c-1.8,0-3.3-1.5-3.3-3.2c0-0.7,0.2-1.4,0.5-2c0.6-1,1.2-2.1,1.8-3.1
		c0.1-0.2,0.1-0.4,0-0.6C7.3,12,5.9,8.9,4.4,5.8C4,5.1,3.7,4.4,3.4,3.6C3.2,3.3,3.1,3.2,2.7,3.2c-0.9,0-1.8,0-2.7,0c0-1,0-2,0-3
		C0,0,0,0,0.2,0C1.9,0,3.6,0,5.3,0z"/>
	<path class="st1" d="M9.6,32c-1.8,0-3.2-1.5-3.2-3.2c0-1.7,1.5-3.2,3.2-3.2c1.7,0,3.2,1.5,3.2,3.2C12.8,30.6,11.4,32,9.6,32z"/>
	<path class="st1" d="M25.6,32c-1.8,0-3.2-1.5-3.2-3.2c0-1.7,1.5-3.3,3.2-3.2c1.8,0,3.2,1.5,3.2,3.3C28.8,30.6,27.3,32,25.6,32z"/>
</g>
</svg>
