<?xml version="1.0" encoding="utf-8"?>
<!-- Generator: Adobe Illustrator 20.1.0, SVG Export Plug-In . SVG Version: 6.00 Build 0)  -->
<svg version="1.1" id="Layer_1" xmlns="http://www.w3.org/2000/svg" xmlns:xlink="http://www.w3.org/1999/xlink" x="0px" y="0px"
	 width="32px" height="32px" viewBox="0 0 32 32" style="enable-background:new 0 0 32 32;" xml:space="preserve">
<style type="text/css">
	.st0{fill:#FDB32E;}
	.st1{fill:#3E3E3E;}
	.st2{fill:#E2E0E0;}
</style>
<g>
	<g>
		<path class="st1" d="M15.6,6.4c3.8,0,6.9,1,9.8,2.8c2.5,1.6,4.6,3.6,6.4,6c0.4,0.5,0.4,1.1,0,1.6c-2.3,3-5,5.5-8.4,7.1
			c-1.8,0.8-3.7,1.4-5.6,1.6c-3.4,0.3-6.6-0.3-9.6-1.9c-1.7-0.9-3.3-2.1-4.8-3.4c-1.1-1-2.1-2.1-2.9-3.3c-0.5-0.6-0.5-1.2,0-1.8
			c1.7-2.2,3.7-4.2,6-5.7C8.6,8,10.9,7,13.5,6.6C14.3,6.5,15.2,6.4,15.6,6.4z M16,9.4c-3.6,0-6.6,3-6.6,6.6c0,3.6,3,6.6,6.6,6.6
			c3.6,0,6.6-2.9,6.6-6.6C22.6,12.4,19.6,9.4,16,9.4z"/>
		<path class="st1" d="M16,11.9c2.2,0,4.1,1.9,4.1,4.1c0,2.3-1.8,4.1-4.1,4.1c-2.3,0-4.1-1.8-4.1-4.1C11.9,13.7,13.8,11.9,16,11.9z"
			/>
	</g>
</g>
</svg>
