<?xml version="1.0" encoding="utf-8"?>
<!-- Generator: Adobe Illustrator 20.1.0, SVG Export Plug-In . SVG Version: 6.00 Build 0)  -->
<svg version="1.1" id="Layer_1" xmlns="http://www.w3.org/2000/svg" xmlns:xlink="http://www.w3.org/1999/xlink" x="0px" y="0px"
	 width="32px" height="32px" viewBox="0 0 32 32" style="enable-background:new 0 0 32 32;" xml:space="preserve">
<style type="text/css">
	.st0{fill:#FDB32E;}
	.st1{fill:#3E3E3E;}
	.st2{fill:#E2E0E0;}
</style>
<g>
	<path class="st1" d="M23.1,4L23.1,4c2.3,0,4.4,1.1,5.7,3c0.8,1.2,1.2,2.4,1.2,4.1c0,1.6-0.8,3.2-2.1,4.5c-3,3-6.1,5.9-9.1,8.9
		l-3,2.9c-1-1-2-2-3-3c-2.9-2.9-5.9-5.9-8.8-8.9c-2-2.1-2.5-4.4-1.6-7c1-2.6,2.9-4.1,5.9-4.4C8.6,4,8.9,4,9.2,4c1.6,0,3,0.6,4.4,1.7
		C14.4,6.4,15,6.9,16,6.9c1,0,1.7-0.6,2.4-1.2C19.8,4.6,21.4,4,23.1,4 M23.1,2c-2.1,0-4.2,0.7-5.9,2.2c-0.6,0.5-0.8,0.7-1.1,0.7
		c-0.3,0-0.6-0.2-1.2-0.7C13.2,2.8,11.3,2,9.2,2C8.8,2,8.5,2,8.1,2.1C4.4,2.5,1.8,4.4,0.6,7.8c-1.2,3.4-0.5,6.5,2,9.1
		c4.1,4.2,8.3,8.4,12.5,12.6c0.4,0.4,0.5,0.5,0.7,0.5c0.2,0,0.4-0.2,0.7-0.5c4.3-4.2,8.6-8.3,12.8-12.5c1.8-1.7,2.6-3.8,2.7-5.9
		c0-2.2-0.5-3.8-1.5-5.3C28.7,3.3,25.9,2,23.1,2L23.1,2z"/>
</g>
<g>
	<path class="st2" d="M22.6,4.8L22.6,4.8c2.1,0,4.1,1,5.4,2.8c0.8,1.1,1.1,2.3,1.1,3.9c0,1.5-0.7,3-1.9,4.2
		c-2.8,2.8-5.7,5.5-8.5,8.3l-2.8,2.7c-0.9-0.9-1.9-1.9-2.8-2.8c-2.7-2.7-5.5-5.5-8.2-8.3C2.9,13.6,2.4,11.4,3.3,9
		C4.2,6.5,6,5.1,8.8,4.8c0.3,0,0.5,0,0.8,0c1.5,0,2.8,0.5,4.1,1.6C14.5,7,15.1,7.5,16,7.5c1,0,1.6-0.5,2.3-1.1
		C19.5,5.3,21.1,4.8,22.6,4.8"/>
</g>
</svg>
