<?xml version="1.0" encoding="utf-8"?>
<!-- Generator: Adobe Illustrator 20.1.0, SVG Export Plug-In . SVG Version: 6.00 Build 0)  -->
<svg version="1.1" id="Layer_1" xmlns="http://www.w3.org/2000/svg" xmlns:xlink="http://www.w3.org/1999/xlink" x="0px" y="0px"
	 width="32px" height="32px" viewBox="0 0 32 32" style="enable-background:new 0 0 32 32;" xml:space="preserve">
<style type="text/css">
	.st0{fill:#FDB32E;}
	.st1{fill:#3E3E3E;}
	.st2{fill:#E2E0E0;}
</style>
<g>
	<g>
		<path class="st0" d="M32,11.1c0,2-0.9,4.2-2.7,5.9c-4.3,4.2-8.5,8.3-12.8,12.5c-0.7,0.7-0.7,0.7-1.4,0c-4.2-4.2-8.4-8.3-12.5-12.6
			c-2.5-2.6-3.3-5.7-2-9.1c1.2-3.4,3.9-5.3,7.5-5.7c2.6-0.3,4.8,0.5,6.8,2.1c1.2,1,1.2,1,2.3,0c4.1-3.5,10.2-2.7,13.3,1.6
			C31.5,7.3,32,8.9,32,11.1z"/>
	</g>
</g>
</svg>
